<svg height="48" viewBox="0 0 48 48" width="48" xmlns="http://www.w3.org/2000/svg">
  <path d="m24 4c-11.027089 0-20 8.972911-20 20 0 11.027089 8.972911 20 20 20 11.027089 0 20-8.972911 20-20 0-11.027089-8.972911-20-20-20zm0 3.140625c9.329671 0 16.859375 7.529704 16.859375 16.859375 0 9.329671-7.529704 16.859375-16.859375 16.859375-9.329671 0-16.859375-7.529704-16.859375-16.859375 0-9.329671 7.529704-16.859375 16.859375-16.859375zm-6.242188 9.869141c-1.23327.003051-2.388522.560777-3.349609 1.40625a1.5661044 1.5661044 0 1 0 2.068359 2.351562c.568911-.500473.960887-.624188 1.289063-.625.328176-.000816.743231.123937 1.345703.638672a1.5661044 1.5661044 0 1 0 2.033203-2.380859c-.990977-.846664-2.153448-1.393677-3.386719-1.390625zm12.429688 0c-1.23327.003051-2.388523.560777-3.349609 1.40625a1.5661044 1.5661044 0 1 0 2.068359 2.351562c.56891-.500473.960888-.624188 1.289062-.625.328175-.000816.741283.123938 1.34375.638672a1.5661044 1.5661044 0 1 0 2.035157-2.380859c-.990974-.846665-2.153449-1.393677-3.386719-1.390625zm-15.316406 11.345703a1.5705606 1.5705606 0 0 0-1.003906 2.738281c3.210628 3.001142 6.623348 4.657728 10.132812 4.658203 3.509464.000476 6.921963-1.65516 10.132812-4.658203a1.5705606 1.5705606 0 0 0-1.050781-2.732422 1.5705606 1.5705606 0 0 0-1.095703.4375c-2.829164 2.646061-5.455755 3.812843-7.986328 3.8125-2.530573-.000343-5.158987-1.167811-7.988281-3.8125a1.5705606 1.5705606 0 0 0-1.140625-.443359z" fill="#808080" fill-opacity=".73333297" overflow="visible" transform="matrix(1.00000003 0 0 1.00000003 -.00000002 -.00000002)"/>
</svg>
